<?xml version="1.0" encoding="UTF-8" standalone="no"?>
<!-- Created with Inkscape (http://www.inkscape.org/) -->
<svg enable-background="new" height="128" viewBox="0 0 128 128" width="128" xmlns="http://www.w3.org/2000/svg" xmlns:xlink="http://www.w3.org/1999/xlink" xmlns:dc="http://purl.org/dc/elements/1.1/" xmlns:cc="http://creativecommons.org/ns#" xmlns:rdf="http://www.w3.org/1999/02/22-rdf-syntax-ns#" xmlns:svg="http://www.w3.org/2000/svg" xmlns:sodipodi="http://sodipodi.sourceforge.net/DTD/sodipodi-0.dtd" xmlns:inkscape="http://www.inkscape.org/namespaces/inkscape" inkscape:export-ydpi="96" inkscape:export-xdpi="96" inkscape:export-filename="Template.png" sodipodi:version="0.32" inkscape:version="0.92.3 (2405546, 2018-03-11)" sodipodi:docname="de.haeckerfelix.Shortwave.svg" inkscape:output_extension="org.inkscape.output.svg.inkscape">
    <linearGradient id="a" gradientUnits="userSpaceOnUse" x1="8.0000015" x2="120.0000025" y1="287.9999875" y2="287.9999875" inkscape:collect="always">
        <stop offset="0" stop-color="#ab7007"/>
        <stop offset="0.03571429" stop-color="#f5b918"/>
        <stop offset="0.07136531" stop-color="#bd7b08"/>
        <stop offset="0.9285714" stop-color="#bd7b08"/>
        <stop offset="0.96428573" stop-color="#63452c"/>
        <stop offset="1" stop-color="#ab7007"/>
    </linearGradient>
    <linearGradient id="b" gradientUnits="userSpaceOnUse" x1="8.0000015" x2="120.0000025" y1="115.9999875" y2="115.9999875" inkscape:collect="always">
        <stop offset="0" stop-color="#ab7007"/>
        <stop offset="0.03571429" stop-color="#f5b918"/>
        <stop offset="0.07136531" stop-color="#3d2b1b"/>
        <stop offset="0.9285714" stop-color="#3d2b1b"/>
        <stop offset="0.96428573" stop-color="#765335"/>
        <stop offset="1" stop-color="#3d2b1b"/>
    </linearGradient>
    <clipPath id="c">
        <rect height="98" width="74" x="6" y="196"/>
    </clipPath>
    <linearGradient id="d" gradientUnits="userSpaceOnUse" x1="27.9998" x2="32.000202" y1="203" y2="203" inkscape:collect="always">
        <stop offset="0" stop-color="#9a9996"/>
        <stop offset="0.11949085" stop-color="#c0bfbc"/>
        <stop offset="0.35090223" stop-color="#deddda"/>
        <stop offset="0.60180056" stop-color="#d2d1ce"/>
        <stop offset="0.85269886" stop-color="#bbbab7"/>
        <stop offset="1" stop-color="#9a9996"/>
    </linearGradient>
    <linearGradient id="e" gradientUnits="userSpaceOnUse" x1="37.047253" x2="37.047253" y1="180.89714" y2="186.89714" inkscape:collect="always">
        <stop offset="0" stop-color="#77767b"/>
        <stop offset="0.075" stop-color="#9a9996"/>
        <stop offset="0.35249999" stop-color="#deddda"/>
        <stop offset="1" stop-color="#77767b"/>
    </linearGradient>
    <linearGradient id="f" gradientUnits="userSpaceOnUse" x1="71.047256" x2="71.047256" y1="181.89714" y2="185.89714" inkscape:collect="always">
        <stop offset="0" stop-color="#77767b"/>
        <stop offset="0.075" stop-color="#9a9996"/>
        <stop offset="0.35249999" stop-color="#c1bfb9"/>
        <stop offset="1" stop-color="#77767b"/>
    </linearGradient>
    <radialGradient id="g" cx="183.21709" cy="-92.151802" gradientTransform="matrix(0.94529382 0.25329072 -0.26736589 0.99782308 -14.508154 -46.647674)" gradientUnits="userSpaceOnUse" r="3" inkscape:collect="always">
        <stop offset="0" stop-color="#fefefe"/>
        <stop offset="0.60000002" stop-color="#bbbab7"/>
        <stop offset="1" stop-color="#5e5c64"/>
    </radialGradient>
    <sodipodi:namedview pagecolor="#ffffff" bordercolor="#666666" borderopacity="0.25490196" inkscape:pageopacity="0.0" inkscape:pageshadow="2" inkscape:zoom="0.70710678" inkscape:cx="-461.99677" inkscape:cy="48.566461" inkscape:current-layer="layer9" showgrid="false" inkscape:grid-bbox="true" inkscape:document-units="px" inkscape:showpageshadow="false" inkscape:window-width="1920" inkscape:window-height="1016" inkscape:window-x="1600" inkscape:window-y="27" inkscape:snap-nodes="true" inkscape:snap-bbox="true" objecttolerance="7" gridtolerance="12" guidetolerance="13" inkscape:window-maximized="1" inkscape:pagecheckerboard="false" showguides="false" inkscape:guide-bbox="true" inkscape:locked="false" inkscape:measure-start="0,0" inkscape:measure-end="0,0" inkscape:object-nodes="true" inkscape:bbox-nodes="true" inkscape:snap-global="true" inkscape:object-paths="true" inkscape:snap-intersection-paths="true" inkscape:snap-bbox-edge-midpoints="true" inkscape:snap-bbox-midpoints="true" showborder="false" inkscape:snap-center="true" inkscape:snap-object-midpoints="true" inkscape:snap-midpoints="true" inkscape:snap-smooth-nodes="true" inkscape:snap-text-baseline="true">
        <inkscape:grid spacingx="2" spacingy="2" enabled="true" visible="true" empspacing="4" originx="0" originy="0"/>
        <sodipodi:guide position="64,8" inkscape:locked="false" inkscape:label="" inkscape:color="rgb(0,0,255)"/>
        <sodipodi:guide position="12,64" inkscape:locked="false" inkscape:label="" inkscape:color="rgb(0,0,255)"/>
        <sodipodi:guide position="64,104" inkscape:locked="false" inkscape:label="" inkscape:color="rgb(0,0,255)"/>
        <sodipodi:guide position="64,128" inkscape:locked="false" inkscape:label="" inkscape:color="rgb(0,0,255)"/>
        <sodipodi:guide position="104,64" inkscape:locked="false" inkscape:label="" inkscape:color="rgb(0,0,255)"/>
        <sodipodi:guide position="9.2651362e-08,64" inkscape:locked="false" inkscape:label="" inkscape:color="rgb(0,0,255)"/>
        <sodipodi:guide position="120,64" inkscape:locked="false" inkscape:label="" inkscape:color="rgb(0,0,255)"/>
        <sodipodi:guide position="64,116" inkscape:locked="false" inkscape:label="" inkscape:color="rgb(0,0,255)"/>
        <inkscape:grid spacingx="1" spacingy="1" empspacing="8" empcolor="#000000" empopacity="0.08627451" dotted="true"/>
        <sodipodi:guide position="24,64" inkscape:locked="false" inkscape:label="" inkscape:color="rgb(0,0,255)"/>
        <sodipodi:guide position="116,64" inkscape:locked="false" inkscape:label="" inkscape:color="rgb(0,0,255)"/>
        <sodipodi:guide position="64,120" inkscape:locked="false" inkscape:label="" inkscape:color="rgb(0,0,255)"/>
        <sodipodi:guide position="64,12" inkscape:locked="false" inkscape:label="" inkscape:color="rgb(0,0,255)"/>
        <sodipodi:guide position="8,64" inkscape:locked="false" inkscape:label="" inkscape:color="rgb(0,0,255)"/>
        <sodipodi:guide position="128,64" inkscape:locked="false" inkscape:label="" inkscape:color="rgb(0,0,255)"/>
        <sodipodi:guide position="64,0" inkscape:locked="false" inkscape:label="" inkscape:color="rgb(0,0,255)"/>
        <sodipodi:guide position="64,24" inkscape:locked="false" inkscape:label="" inkscape:color="rgb(0,0,255)"/>
        <sodipodi:guide position="256,256" inkscape:locked="false" inkscape:label="" inkscape:color="rgb(0,0,255)"/>
        <sodipodi:guide position="64,64" inkscape:locked="false" inkscape:label="" inkscape:color="rgb(0,0,255)"/>
    </sodipodi:namedview>
    <g inkscape:label="App Icon" inkscape:groupmode="layer">
        <g transform="matrix(1 0 0 1 0 -172)" inkscape:groupmode="layer" inkscape:label="icons">
            <g transform="matrix(0.96592583 -0.25881905 0.25881905 0.96592583 -45.653577 29.886976)">
                <path d="m 29.047254 183.89715 h 62.999999" fill="none" stroke="url(#f)" stroke-width="4" inkscape:connector-curvature="0" sodipodi:nodetypes="cc"/>
                <path d="m 29.047253 183.89714 h 31.999998" fill="none" stroke="url(#e)" stroke-width="6" sodipodi:nodetypes="cc" inkscape:connector-curvature="0"/>
                <rect height="4" opacity="0.2" width="1" x="61.047253" y="181.89716"/>
                <circle cx="183.89716" cy="-92.047256" fill="url(#g)" r="3" transform="matrix(0 1 -1 0 0 0)"/>
            </g>
            <circle cx="30" cy="200" fill="#77767b" r="4"/>
            <circle cx="30" cy="200" fill="#3d3846" r="4"/>
            <path d="m 29.970703 197.97266 a 2.0002 2.0002 0 0 0 -1.970703 2.02734 v 6 a 2.0002 2.0002 0 1 0 4 0 v -6 a 2.0002 2.0002 0 0 0 -2.029297 -2.02734 z" fill="url(#d)" inkscape:connector-curvature="0" font-variant-ligatures="normal" font-variant-position="normal" font-variant-caps="normal" font-variant-numeric="normal" font-variant-alternates="normal" font-feature-settings="normal" text-indent="0" text-align="start" text-decoration-line="none" text-decoration-style="solid" text-decoration-color="#000000" text-transform="none" text-orientation="mixed" white-space="normal" shape-padding="0" isolation="auto" mix-blend-mode="normal" solid-color="#000000" solid-opacity="1" vector-effect="none"/>
            <rect fill="#63452c" height="6" rx="2" width="12" x="24" y="204"/>
            <g clip-path="url(#c)">
                <rect fill="url(#a)" height="76" rx="8" width="112.00001" x="7.999993" y="212"/>
                <rect fill="#e5a50a" height="72" rx="8" width="112.00001" x="7.999993" y="208"/>
            </g>
            <path d="m 80 46.021484 v 69.978516 h 32 c 4.432 0 8 -3.568 8 -8 v -53.978516 c 0 -4.432 -3.568 -8 -8 -8 h -32 z" fill="url(#b)" transform="matrix(1 0 0 1 0 172)" vector-effect="none" paint-order="normal"/>
            <path d="m 80 208 v 72 h 32 c 4.432 0 8 -3.568 8 -8 v -56 c 0 -4.432 -3.568 -8 -8 -8 z" fill="#63452c" inkscape:connector-curvature="0" sodipodi:nodetypes="ccssssc" vector-effect="none" paint-order="normal"/>
            <rect fill="#bd7b08" height="18" rx="8" width="16" x="92" y="224"/>
            <circle cx="100" cy="232" fill="#e5a50a" r="8"/>
            <circle cx="97" cy="227" fill="#63452c" r="1.3125"/>
            <rect fill="#bd7b08" height="6" rx="2" width="6" x="92" y="248"/>
            <rect fill="#e5a50a" height="4" rx="2" width="6" x="92" y="248"/>
            <rect fill="#bd7b08" height="6" rx="2" width="6" x="102" y="248"/>
            <rect fill="#e5a50a" height="4" rx="2" width="6" x="102" y="248"/>
            <rect fill="#bd7b08" height="6" rx="2" width="6" x="92" y="258"/>
            <rect fill="#e5a50a" height="4" rx="2" width="6" x="92" y="258"/>
            <rect fill="#bd7b08" height="6" rx="2" width="6" x="102" y="258"/>
            <rect fill="#e5a50a" height="4" rx="2" width="6" x="102" y="258"/>
        </g>
        <path d="m 43.999997 50 a 22 22 0 0 0 -12.601562 4 h 25.230468 a 22 22 0 0 0 -12.628906 -4 z m -16.957031 8 a 22 22 0 0 0 -2.613281 4 h 39.166015 a 22 22 0 0 0 -2.648437 -4 z m -4.1875 8 a 22 22 0 0 0 -0.75586 4 h 43.791016 a 22 22 0 0 0 -0.730469 -4 z m -0.746094 8 a 22 22 0 0 0 0.730469 4 h 42.304687 a 22 22 0 0 0 0.75586 -4 z m 2.294922 8 a 22 22 0 0 0 2.648437 4 h 33.904297 a 22 22 0 0 0 2.613281 -4 z m 6.966797 8 a 22 22 0 0 0 12.628906 4 a 22 22 0 0 0 12.601562 -4 z" fill="#63452c" inkscape:connector-curvature="0" vector-effect="none"/>
    </g>
</svg>
